<svg width="50" height="50" viewBox="0 0 33 33" fill="none" xmlns="http://www.w3.org/2000/svg">
<path fill-rule="evenodd" clip-rule="evenodd" d="M22 18.8769V13.123C22 12.6776 21.7714 12.2664 21.4 12.0434L16.6 9.16679C16.2286 8.9444 15.7714 8.9444 15.4 9.16679L10.6 12.0434C10.2286 12.2664 10 12.6776 10 13.123V18.8769C10 19.3223 10.2286 19.7334 10.6 19.9558L15.4 22.8337C15.7714 23.0554 16.2286 23.0554 16.6 22.8337L21.4 19.9558C21.7714 19.7334 22 19.3223 22 18.8769Z" stroke="#ffffff" stroke-width="1.5"/>
<path fill-rule="evenodd" clip-rule="evenodd" d="M16 23V17.342C16 16.8665 16.2388 16.4287 16.6225 16.2002L22 13V20L16 23Z" fill="#ffffff"/>
</svg>
